<?xml version="1.0" encoding="UTF-8"?>
<!DOCTYPE svg PUBLIC "-//W3C//DTD SVG 1.1//EN" "http://www.w3.org/Graphics/SVG/1.1/DTD/svg11.dtd">
<!-- Creator: CorelDRAW -->
<svg xmlns="http://www.w3.org/2000/svg" xml:space="preserve" width="8.336in" height="3.17683in" style="shape-rendering:geometricPrecision; text-rendering:geometricPrecision; image-rendering:optimizeQuality; fill-rule:evenodd; clip-rule:evenodd"
viewBox="0 0 8.336 3.17683"
 xmlns:xlink="http://www.w3.org/1999/xlink">
 <defs>
  <style type="text/css">
   <![CDATA[
    .fil0 {fill:#511F47;fill-rule:nonzero}
   ]]>
  </style>
 </defs>
 <g id="Layer_x0020_1">
  <metadata id="CorelCorpID_0Corel-Layer"/>
  <g id="_371318000">
   <path id="_374558328" class="fil0" d="M0.845441 0.636067l0.806213 1.45798 -0.698551 0 -0.0956299 -0.184354 -0.338445 0 -0.298197 -0.00103543 -0.0505709 -0.00103543 -0.0663819 0.122791c-0.0195945,0.0371457 -0.0330157,0.0601929 -0.0409331,0.0691339 -0.00756693,0.00894488 -0.017189,0.0137559 -0.0285394,0.0137559 -0.0230551,0 -0.0344055,-0.010311 -0.0344055,-0.0302717 0,-0.00893307 0.00653937,-0.0250984 0.0196142,-0.0488307 0.0130551,-0.0240827 0.0591457,-0.102496 0.137583,-0.23526l0.609472 -1.02702 0.0787717 -0.135854zm-0.313346 0.660024l-0.176445 0.297165 -0.141024 0.24489 0.302331 0.00414173 0.30337 -0.00309843 -0.288232 -0.543098zm1.83017 -0.577476l-0.00414173 0.210484 -0.00412205 0.335693 0.00103543 0.24489 0.00412205 0.51902 0.0725709 0.000688976 0.431323 -0.00584646 0.0784173 -0.00103543c0.0395512,0 0.0595118,0.0116969 0.0595118,0.0354291 0,0.0206417 -0.0106732,0.0319921 -0.0323346,0.0340512 -0.0044685,0.000692913 -0.0199488,0.00137008 -0.0460906,0.00206299l-1.1801 0 0.00309449 -0.382811 0.00206299 -0.234917 0.00172441 -0.265866 -0.0037874 -0.405173 0.00103543 -0.0866693 0.615677 0zm1.37442 0.441283c-0.00138189,0.0309528 -0.00205906,0.068437 -0.00205906,0.112811l0 0.0605276 0.00721654 0.695465 0.341547 -0.00412992 0.241787 -0.00309843c0.039563,0 0.0595118,0.0120394 0.0595118,0.0364646 0,0.0199488 -0.00998031,0.0312992 -0.0302638,0.0340512 -0.00481496,0.000692913 -0.0326811,0.00137008 -0.0835827,0.00206299l-1.14467 0 0.00101969 -0.0522756 0.00104331 -0.336724 0.0037874 -0.360811 -0.00792126 -0.625626 1.06797 0c0.047815,0 0.0749843,0.00102362 0.0818661,0.00309449 0.0154724,0.00377953 0.0230354,0.0154724 0.0230354,0.0340512 0,0.0237283 -0.0147795,0.0354331 -0.0443622,0.0354331l-0.00687402 0 -0.504929 -0.00722835 -0.00412205 0.312634 0.109717 0.00104724 0.35289 -0.00619291 0.0773898 -0.00103543c0.0282126,0 0.047126,0.00239764 0.0560591,0.00722835 0.00895276,0.00446457 0.0137638,0.0140906 0.0137638,0.0282008 0,0.0261339 -0.0223543,0.0392087 -0.0667205,0.0392087l-0.0794488 -0.00207087 -0.46365 -0.00308661zm1.60831 0.706469c0.0646575,0.0443583 0.134138,0.0821929 0.209122,0.113157 0.0749843,0.0312874 0.155461,0.0557047 0.241449,0.0732559 0.0206496,0.00412205 0.031311,0.0140945 0.031311,0.0302559 0,0.0220276 -0.0154921,0.0330236 -0.046437,0.0330236 -0.0705079,0 -0.169571,-0.0306063 -0.297173,-0.0925157 -0.106291,-0.0515945 -0.227701,-0.131736 -0.364929,-0.239732l0 0.0412756 0.00103543 0.17128 0 0.097685 -0.613618 0 0 -0.0454016 0.00206299 -0.328472 0.00309449 -0.393134 -0.00207087 -0.608429 0.404839 0c0.18161,0 0.318504,0.00515748 0.411366,0.0151378 0.0925236,0.0099685 0.17163,0.0288819 0.236634,0.0563937 0.106283,0.044374 0.190213,0.117287 0.252122,0.21876 0.0570945,0.0938976 0.0856417,0.192606 0.0856417,0.29613 0,0.110059 -0.0319882,0.213937 -0.0959567,0.311276 -0.102843,0.156492 -0.255563,0.240075 -0.458492,0.250055zm-0.0956142 -0.0626063l0.0484961 0.00102362c0.138264,0 0.255217,-0.0385079 0.350484,-0.115898 0.0605276,-0.0481614 0.106965,-0.108689 0.138961,-0.181264 0.0302638,-0.0663858 0.0453937,-0.134488 0.0453937,-0.203614 0,-0.117634 -0.0381732,-0.222543 -0.114874,-0.315398 -0.0584764,-0.0718858 -0.131732,-0.122453 -0.219437,-0.152028 -0.0880591,-0.0295827 -0.21222,-0.0453898 -0.371823,-0.0474606l-0.00927953 0.675157 0 0.182295 0.00103543 0.0474606c0.0409213,0.039563 0.0846063,0.0763543 0.131043,0.109724zm1.45217 -1.08515l0 0.0705079 -0.00515748 0.55237 0.00412205 0.752559 -0.615677 0 0.00688189 -0.823413 -0.00688189 -0.5025 0.00104331 -0.0495236 0.615669 0zm0.90287 -0.0412795c0.106276,0 0.208772,0.0223661 0.307492,0.0674094 0.145154,0.0667323 0.255894,0.168882 0.332602,0.3075 0.060874,0.11074 0.0914921,0.231469 0.0914921,0.36148 0,0.104909 -0.0230472,0.20637 -0.0694803,0.30439 -0.0691378,0.146516 -0.177134,0.257622 -0.323327,0.33363 -0.107654,0.0557283 -0.220465,0.0835748 -0.33878,0.0835748 -0.124858,0 -0.243173,-0.0316339 -0.354614,-0.0945787 -0.148587,-0.0832362 -0.254177,-0.200181 -0.317469,-0.350827 -0.0388701,-0.0918268 -0.0584764,-0.187106 -0.0584764,-0.285126 0,-0.122799 0.0306102,-0.240079 0.0918386,-0.351516 0.0749843,-0.13724 0.185043,-0.239736 0.329508,-0.307492 0.0959567,-0.0450551 0.199146,-0.0677638 0.309213,-0.0684449zm-0.0794488 0.0674094l-0.00619291 0.655902 0.00514567 0.545161 0.00104724 0.123138c0.0227008,0.0037874 0.0447087,0.00584646 0.0653386,0.00584646 0.148587,0 0.281358,-0.0409331 0.397957,-0.12278 0.106972,-0.0753386 0.18435,-0.17198 0.231823,-0.290303 0.0337047,-0.0825472 0.0505591,-0.168189 0.0505591,-0.256921 0,-0.116941 -0.0282047,-0.225642 -0.0846102,-0.326409 -0.0694803,-0.123819 -0.166819,-0.21463 -0.292362,-0.273094 -0.0938976,-0.0443661 -0.193295,-0.066374 -0.297173,-0.066374 -0.0244173,0 -0.0481417,0.0017126 -0.0715315,0.00583465z"/>
   <path id="_374512536" class="fil0" d="M4.31196 3.00893l0.177701 -0.259626 -0.149594 -0.230598c-0.0140512,-0.022374 -0.0245984,-0.0416024 -0.031626,-0.0576969 -0.00702362,-0.0160866 -0.0105354,-0.0316181 -0.0105354,-0.0464094 0,-0.0151654 0.00665354,-0.0286614 0.0203346,-0.0408661 0.0135079,-0.0120197 0.0299567,-0.018126 0.0495591,-0.018126 0.022374,0 0.0397559,0.00666142 0.0521496,0.0197953 0.0125669,0.013122 0.0297677,0.0375315 0.0517756,0.0734094l0.119272 0.192685 0.127413 -0.192685c0.0103622,-0.0162756 0.0194094,-0.0301457 0.026811,-0.0417953 0.00740157,-0.0114646 0.0144291,-0.0210787 0.0212638,-0.0286614 0.00684252,-0.00758268 0.0146102,-0.013315 0.023122,-0.0170157 0.00850394,-0.00388189 0.018311,-0.00573228 0.0295827,-0.00573228 0.0201614,0 0.0366181,0.0061063 0.0495591,0.018126 0.0127598,0.0122047 0.0192323,0.0264409 0.0192323,0.0430827 0,0.0242244 -0.0138701,0.0569606 -0.0417953,0.098563l-0.156622 0.233925 0.168642 0.259626c0.0151654,0.022748 0.0260748,0.0416142 0.0329213,0.0565866 0.00684252,0.0149724 0.0103504,0.0292205 0.0103504,0.0425354 0,0.0125669 -0.00314173,0.0242244 -0.00924016,0.0345748 -0.0061063,0.0105472 -0.0147992,0.0188661 -0.0258937,0.0249646 -0.0112835,0.0061063 -0.0238504,0.00924016 -0.0380866,0.00924016 -0.0151654,0 -0.0279331,-0.00313386 -0.0384685,-0.00942126 -0.0103543,-0.00629134 -0.0188543,-0.0142362 -0.0253346,-0.0236693 -0.00665354,-0.00925197 -0.0186772,-0.0275512 -0.0364291,-0.0547362l-0.139795 -0.21987 -0.148492 0.22652c-0.0114646,0.0179488 -0.0197874,0.0306969 -0.0245984,0.0379173 -0.00480315,0.00720866 -0.0107283,0.0142323 -0.017563,0.0210787 -0.00684252,0.00684252 -0.0149843,0.0122047 -0.0244134,0.0162756 -0.00943307,0.00387402 -0.0203425,0.00590551 -0.0330945,0.00590551 -0.0194213,0 -0.0356969,-0.00590551 -0.0484488,-0.0179252 -0.0127677,-0.0118386 -0.0192402,-0.0292205 -0.0192402,-0.0519685 0,-0.026811 0.0131339,-0.0593583 0.0395827,-0.0980079zm0.883547 -0.0687835l-0.171059 0c-0.0260748,0 -0.0458583,-0.0061063 -0.0593583,-0.018126 -0.0134961,-0.0122047 -0.0203425,-0.0277323 -0.0203425,-0.0469724 0,-0.0194134 0.00665354,-0.0351339 0.0197874,-0.0473386 0.0131339,-0.0120197 0.0331024,-0.018126 0.0599134,-0.018126l0.171059 0c0.026811,0 0.0467795,0.0061063 0.0599134,0.018126 0.013122,0.0122047 0.0197874,0.0279252 0.0197874,0.0473386 0,0.0192402 -0.00648031,0.0347677 -0.0194213,0.0469724 -0.013126,0.0120197 -0.0330945,0.018126 -0.0602795,0.018126zm0.401646 -0.116512l-0.0564055 0 0 0.255197c0,0.0334646 -0.00740157,0.0582559 -0.022185,0.0741496 -0.0147992,0.0159055 -0.0342126,0.0238504 -0.0580709,0.0238504 -0.0255197,0 -0.0454882,-0.00831102 -0.0595433,-0.0249606 -0.0140512,-0.0166417 -0.0210787,-0.0408583 -0.0210787,-0.0730394l0 -0.611161c0,-0.0345787 0.00776378,-0.0597323 0.0232953,-0.0752638 0.0155394,-0.0155276 0.040685,-0.0233031 0.0752717,-0.0233031l0.261657 0c0.0360512,0 0.0669409,0.00148819 0.0926496,0.00462992 0.0257008,0.00295276 0.048815,0.00924409 0.0693386,0.0186732 0.0249724,0.0105472 0.0469724,0.0255197 0.0662008,0.0449409 0.0190472,0.0195945 0.0336575,0.0421614 0.0434567,0.0680433 0.00998819,0.0257126 0.0149803,0.0530709 0.0149803,0.0821063 0,0.0591772 -0.0166496,0.106516 -0.0501142,0.141831 -0.0334685,0.0355079 -0.0841417,0.0604685 -0.152,0.0752717 0.0284803,0.0151654 0.0558386,0.0377205 0.0819134,0.0673031 0.0258937,0.0295945 0.0491969,0.0610276 0.0695276,0.0944921 0.0203425,0.0334764 0.036248,0.0636142 0.0477126,0.090437 0.0112835,0.0269961 0.0170157,0.0454882 0.0170157,0.0554646 0,0.0105472 -0.00332677,0.0209016 -0.00998819,0.031252 -0.00665354,0.0101811 -0.0157126,0.018311 -0.0273701,0.0244173 -0.0116457,0.00591339 -0.0249606,0.00886614 -0.040126,0.00886614 -0.017937,0 -0.0332835,-0.00424409 -0.0454882,-0.012748 -0.0122047,-0.00851181 -0.022748,-0.0192323 -0.031626,-0.0321811 -0.00887795,-0.0129409 -0.0208976,-0.0321732 -0.0360551,-0.0575079l-0.0645433 -0.107252c-0.0231102,-0.0393898 -0.0438268,-0.0693465 -0.0619449,-0.0898819 -0.018311,-0.0205118 -0.0367913,-0.0345669 -0.0556575,-0.0421575 -0.0186732,-0.0075748 -0.0423543,-0.0114685 -0.0708228,-0.0114685zm0.0920827 -0.333772l-0.148488 0 0 0.218394 0.144059 0c0.0386457,0 0.071189,-0.00333465 0.0976299,-0.00998819 0.0262638,-0.00665354 0.0464134,-0.0181181 0.0602874,-0.0342165 0.0138701,-0.0160827 0.0208976,-0.0380827 0.0208976,-0.0663819 0,-0.0220118 -0.00555118,-0.0414252 -0.0168228,-0.058248 -0.0111024,-0.0168307 -0.0266339,-0.0294094 -0.0466102,-0.0377323 -0.0186732,-0.00794488 -0.0556575,-0.0118268 -0.110953,-0.0118268zm0.997835 0.583417l-0.0379134 -0.0996654 -0.322866 0 -0.0379134 0.10189c-0.0149724,0.0397559 -0.0275512,0.0665669 -0.0380945,0.0804409 -0.0103543,0.0138701 -0.0275512,0.0208858 -0.0514016,0.0208858 -0.0201614,0 -0.0380945,-0.00738976 -0.053626,-0.0221811 -0.0155394,-0.0147913 -0.0233031,-0.031626 -0.0233031,-0.0504803 0,-0.0107283 0.00185039,-0.0220118 0.00535827,-0.0334764 0.00370079,-0.0116457 0.00962598,-0.0277441 0.0179449,-0.0482559l0.203228 -0.515752c0.00573228,-0.0147913 0.012752,-0.0325472 0.0208898,-0.053252 0.0081378,-0.0208976 0.0166496,-0.0380945 0.0258937,-0.0517835 0.00924016,-0.0136811 0.0214528,-0.0247717 0.0364252,-0.0332835 0.0149724,-0.00850394 0.0334764,-0.0127598 0.0554764,-0.0127598 0.0223858,0 0.0410591,0.00425591 0.0560315,0.0127598 0.0149724,0.00851181 0.027185,0.0194213 0.0364291,0.0327244 0.00906693,0.0133268 0.0168307,0.0277441 0.0233031,0.0430906 0.00627953,0.0153504 0.0142362,0.0358819 0.0240315,0.0614016l0.207484 0.512594c0.0162795,0.0390197 0.0244094,0.0673071 0.0244094,0.0850591 0,0.018311 -0.00776772,0.0351339 -0.0231142,0.0504921 -0.0153465,0.0153386 -0.0338386,0.0231024 -0.0554764,0.0231024 -0.0125748,0 -0.0234843,-0.0022126 -0.0325433,-0.00683465 -0.00905906,-0.00443701 -0.0166417,-0.0105354 -0.022748,-0.018311 -0.00609843,-0.00776378 -0.0127598,-0.0197835 -0.0197874,-0.0358701 -0.00702756,-0.0160866 -0.013122,-0.0301496 -0.0181181,-0.0425354zm-0.318618 -0.220425l0.237441 0 -0.119827 -0.327677 -0.117614 0.327677zm0.715642 0.225976l0 -0.251858 -0.193984 -0.300685c-0.0170079,-0.027185 -0.0290276,-0.0482559 -0.0360551,-0.0634213 -0.00702756,-0.0151654 -0.0105472,-0.0282992 -0.0105472,-0.0395709 0,-0.018311 0.00722047,-0.0342126 0.0214567,-0.0477205 0.0142362,-0.0133071 0.0318071,-0.0199685 0.0528858,-0.0199685 0.022,0 0.0386535,0.0062874 0.0501181,0.0186811 0.0112717,0.0123858 0.0282874,0.0373504 0.0510354,0.0745236l0.148492 0.240941 0.15015 -0.240941c0.00887795,-0.0147992 0.0164606,-0.027378 0.022748,-0.0373543 0.00609843,-0.0101732 0.0127598,-0.0196063 0.0201496,-0.0284803 0.00758268,-0.00887795 0.0157244,-0.0157244 0.0247835,-0.0203425 0.00905906,-0.00462205 0.0199646,-0.00702756 0.0330984,-0.00702756 0.0201614,0 0.0369843,0.00666142 0.0504843,0.0197953 0.013689,0.013122 0.0203386,0.0284724 0.0203386,0.0456693 0,0.0142362 -0.00332283,0.0282992 -0.0101614,0.0423504 -0.00684252,0.0140551 -0.0186811,0.0336496 -0.0353228,0.0584291l-0.198791 0.305122 0 0.251858c0,0.0327283 -0.00758268,0.0573268 -0.022748,0.0735945 -0.0151575,0.0162756 -0.0345787,0.0244055 -0.057874,0.0244055 -0.0238583,0 -0.0432717,-0.00794488 -0.0580709,-0.0240315 -0.0147913,-0.0160866 -0.022185,-0.0408661 -0.022185,-0.0739685zm1.09215 -0.154039c0,0.0480827 -0.0123976,0.0913543 -0.0371772,0.129622 -0.0245984,0.0382874 -0.0608346,0.068248 -0.108543,0.0898819 -0.0477126,0.021626 -0.104118,0.0325354 -0.169571,0.0325354 -0.0784173,0 -0.142953,-0.0147795 -0.193988,-0.044374 -0.0360551,-0.0214449 -0.0654567,-0.0497441 -0.0880236,-0.0854331 -0.0225551,-0.0355079 -0.0338386,-0.0700827 -0.0338386,-0.10374 0,-0.0194134 0.00684646,-0.036248 0.0203425,-0.0501102 0.0134961,-0.0138701 0.0306969,-0.0208976 0.0517756,-0.0208976 0.0170157,0 0.031252,0.00554331 0.0430906,0.0162795 0.0116457,0.0109094 0.0216378,0.0269921 0.0299567,0.0482559 0.0101693,0.0253346 0.0210787,0.0464173 0.0329094,0.0634213 0.0116575,0.0168346 0.0282992,0.0308898 0.049563,0.0419882 0.0212717,0.0109094 0.0491969,0.0164528 0.0839567,0.0164528 0.0477087,0 0.0863504,-0.0110945 0.116126,-0.0332835 0.0297756,-0.0221929 0.044748,-0.0499252 0.044748,-0.0832087 0,-0.0262677 -0.00794488,-0.0477205 -0.0240433,-0.0641732 -0.0160827,-0.0164567 -0.0369724,-0.0290354 -0.0623071,-0.0375394 -0.0255197,-0.00869291 -0.0595512,-0.017937 -0.102268,-0.0277402 -0.0569528,-0.0133071 -0.104846,-0.0290276 -0.143315,-0.0467835 -0.0384606,-0.017937 -0.0689724,-0.0423504 -0.0915315,-0.0732283 -0.022563,-0.030878 -0.0338386,-0.0691654 -0.0338386,-0.115016 0,-0.0436457 0.0118307,-0.0824803 0.035689,-0.116504 0.0238504,-0.0338386 0.0584291,-0.0599134 0.103563,-0.0782205 0.0451102,-0.018311 0.0981811,-0.0273701 0.159209,-0.0273701 0.0488228,0 0.0909803,0.0061063 0.126488,0.018126 0.0356929,0.0122047 0.0650906,0.0281063 0.0885669,0.0482598 0.0234882,0.0199764 0.040685,0.0410551 0.0515945,0.0630551 0.0107362,0.0220118 0.0162795,0.0434646 0.0162795,0.0645354 0,0.0190591 -0.00684646,0.0362559 -0.0203425,0.0515945 -0.0135,0.0153583 -0.0305157,0.023122 -0.0506732,0.023122 -0.0184843,0 -0.0323543,-0.00462205 -0.0419685,-0.0138701 -0.00961417,-0.00905906 -0.0199803,-0.0242244 -0.0310709,-0.045126 -0.0146102,-0.0299567 -0.0318071,-0.0534331 -0.0521496,-0.0702638 -0.0201496,-0.0168346 -0.0526929,-0.0251575 -0.0974449,-0.0251575 -0.0416102,0 -0.0750787,0.00907087 -0.100413,0.027378 -0.0255197,0.0183031 -0.0382795,0.0401299 -0.0382795,0.0658307 0,0.0159055 0.00425591,0.0295827 0.0129409,0.0410472 0.00869685,0.0116496 0.0207087,0.0216378 0.035874,0.0299567 0.0151654,0.00814173 0.0305118,0.0148031 0.0460512,0.0194252 0.0155315,0.00461811 0.0410472,0.0114646 0.0769213,0.0205236 0.044748,0.0105354 0.085248,0.022 0.121496,0.0347677 0.0364252,0.0125669 0.067122,0.0279173 0.0926417,0.0460354 0.0255197,0.0179449 0.0453031,0.040874 0.0595472,0.0684252 0.0142362,0.0277441 0.0214567,0.0615827 0.0214567,0.10152z"/>
   <path id="_374789888" class="fil0" d="M8.01103 0c0.0411614,0 0.0813268,0.0105433 0.120594,0.031626 0.0391693,0.0211929 0.0697953,0.0513701 0.0916535,0.090752 0.0218543,0.0392835 0.0328425,0.0803307 0.0328425,0.123047 0,0.0422756 -0.0107677,0.0828858 -0.0324016,0.121823 -0.0215197,0.0390551 -0.051815,0.0693465 -0.0906496,0.090878 -0.0389488,0.021626 -0.0795551,0.0323937 -0.122039,0.0323937 -0.0424961,0 -0.0832205,-0.0107677 -0.122055,-0.0323937 -0.038937,-0.0215315 -0.0692323,-0.0518228 -0.0908661,-0.090878 -0.021752,-0.038937 -0.0325079,-0.0795472 -0.0325079,-0.121823 0,-0.0427165 0.0109843,-0.0837638 0.0329488,-0.123047 0.0219724,-0.0393819 0.0525906,-0.0695591 0.0918661,-0.090752 0.0391693,-0.0210827 0.0794488,-0.031626 0.120614,-0.031626zm0 0.0406063c-0.0345118,0 -0.0680276,0.00887795 -0.100638,0.0265157 -0.032622,0.0176496 -0.0581417,0.0429449 -0.0765551,0.0756732 -0.0184252,0.0328425 -0.0276299,0.0670197 -0.0276299,0.10263 0,0.0352874 0.00909843,0.069126 0.027189,0.10152 0.0180787,0.0324016 0.043378,0.0577008 0.0758819,0.0757874 0.0325197,0.0180827 0.0663583,0.0271772 0.101752,0.0271772 0.0352756,0 0.0692283,-0.00909449 0.101736,-0.0271772 0.0325079,-0.0180866 0.0577008,-0.0433858 0.0756654,-0.0757874 0.0179843,-0.0323937 0.0269646,-0.0662323 0.0269646,-0.10152 0,-0.0356102 -0.00909449,-0.0697874 -0.0274055,-0.10263 -0.018311,-0.0327283 -0.0438268,-0.0580236 -0.0765551,-0.0756732 -0.0327283,-0.0176378 -0.0662402,-0.0265157 -0.100406,-0.0265157zm-0.107626 0.340291l0 -0.263843 0.0906457 0c0.0310709,0 0.0534843,0.00233071 0.0673465,0.00720866 0.0138701,0.00488189 0.0248543,0.0134331 0.0331772,0.0255197 0.00820472,0.0122047 0.0123189,0.0250787 0.0123189,0.0387205 0,0.0193071 -0.00688583,0.036063 -0.0206417,0.050374 -0.0137559,0.014315 -0.032063,0.0223071 -0.054815,0.0240827 0.00933071,0.00388189 0.0168622,0.00853937 0.0224134,0.0139764 0.0106496,0.0104291 0.0236299,0.0278465 0.0390551,0.0523701l0.0321811 0.0515906 -0.0520354 0 -0.0234094 -0.0416024c-0.0184252,-0.032622 -0.0331772,-0.0531457 -0.0444961,-0.0613504 -0.00776772,-0.00611024 -0.0191929,-0.00911024 -0.0341772,-0.00911024l-0.0249606 0 0 0.112063 -0.0426024 0zm0.0426024 -0.148453l0.0517047 0c0.0246299,0 0.0415,-0.00377559 0.0504843,-0.0110984 0.00898031,-0.00732283 0.0135354,-0.0170827 0.0135354,-0.0292874 0,-0.00776378 -0.00221654,-0.014752 -0.00654724,-0.0209646 -0.00433465,-0.0061063 -0.010315,-0.0107638 -0.0179764,-0.0137677 -0.00776378,-0.00310236 -0.0219606,-0.00454331 -0.0428189,-0.00454331l-0.0483819 0 0 0.0796614z"/>
  </g>
 </g>
</svg>
