<svg width="200" height="109" viewBox="0 0 200 109" fill="none" xmlns="http://www.w3.org/2000/svg">
<path d="M101.1 67.9C101.1 64.8 100.3 62.6 98.6 61.2C97.1 60 94.7 59.4 91.6 59.4H89.2V76.8H91.8C97.9 76.8 101.1 73.8 101.1 67.9ZM104.3 67.8C104.3 71.2 103.3 73.9 101.2 75.9C98.9 78.1 95.7 79.2 91.4 79.2H86V56.9H91.5C95.7 56.9 98.9 57.9 101.1 59.9C103.3 61.8 104.3 64.4 104.3 67.8ZM107.8 79.2V56.9H121.1V59.5H110.8V66.2H119.8V68.7H110.8V76.7H121.1V79.2H107.8ZM140.5 79.2L129.9 64C129.4 63.3 129 62.7 128.7 62.2L128.1 61.1H128C128.1 61.8 128.1 62.7 128.1 63.6V79.2H125.3V56.9H128.3L138.4 71.3C138.9 72.1 139.4 72.8 139.8 73.5L140.5 74.7C140.5 74.1 140.4 73 140.4 71.6L140.5 56.9H143.2V79.2H140.5ZM156.3 59.5V79.2H153.3V59.5H146.8V56.9H162.8V59.5H156.3ZM172 60.4L167.9 71.5H176L172 60.4ZM165.1 79.2H162.1L170.7 56.9H173.6L182.2 79.2H178.9L177 74H167L165.1 79.2ZM185.3 79.2V56.9H188.3V76.7H197.2V79.2H185.3ZM101.1 40C101.1 37 100.3 34.7 98.6 33.3C97.1 32.1 94.7 31.5 91.6 31.5H89.2V48.9H91.8C97.9 48.9 101.1 46 101.1 40ZM104.3 40C104.3 43.4 103.3 46.1 101.2 48.1C98.9 50.3 95.7 51.4 91.4 51.4H86V29.1H91.5C95.7 29.1 98.9 30.1 101.1 32.1C103.3 33.9 104.3 36.6 104.3 40ZM124.7 42.8C124.7 45.7 124 47.9 122.7 49.4C121.3 51 119.2 51.8 116.4 51.8C113.5 51.8 111.4 51 109.9 49.4C108.5 47.9 107.8 45.8 107.8 43V29.1H110.7V42.7C110.7 47.1 112.6 49.3 116.4 49.3C118.2 49.3 119.6 48.8 120.5 47.7C121.4 46.6 121.9 45.1 121.9 43.2V29.2H124.6V42.8H124.7ZM140.7 35.2C140.7 32.7 139.1 31.5 135.9 31.5H132.9V38.9H136.1C139.1 38.9 140.7 37.7 140.7 35.2ZM141.9 51.4L137.5 45.1C136.7 43.9 136.2 43.2 136 43C135.3 42.1 134.7 41.6 134.2 41.4C133.9 41.3 133.6 41.3 133.3 41.3H133V51.4H129.9V29.1H136.2C138.4 29.1 140.2 29.5 141.5 30.4C143 31.4 143.8 33 143.8 35.1C143.8 36.8 143.2 38.2 142.1 39.3C141.1 40.3 139.6 40.8 137.8 40.9V41C138.3 41.4 139.1 42.3 140.2 43.8L145.5 51.3H141.9V51.4ZM160 35.2C160 32.7 158.4 31.5 155.2 31.5H152.2V38.9H155.4C158.5 38.9 160 37.7 160 35.2ZM161.2 51.4L156.8 45.1C156 43.9 155.5 43.2 155.3 43C154.6 42.1 153.9 41.6 153.5 41.4C153.2 41.3 152.9 41.3 152.6 41.3H152.3V51.4H149.3V29.1H155.6C157.8 29.1 159.6 29.5 160.9 30.4C162.4 31.4 163.2 33 163.2 35.1C163.2 36.8 162.6 38.2 161.5 39.3C160.5 40.3 159 40.8 157.2 40.9V41C157.7 41.4 158.5 42.3 159.6 43.8L164.9 51.3H161.2V51.4Z" fill="#1D1D1B"/>
<path d="M114.9 26.6H111.8V23.6H114.9V26.6ZM120.8 26.6H117.8V23.6H120.8V26.6Z" fill="#1D1D1B"/>
<path d="M2.7998 79.2H25.0998L80.4998 23.7V1.40002L2.7998 79.2Z" fill="#05BAEE"/>
<path d="M80.4999 51.4L52.6999 79.2H30.3999L80.4999 29.1V51.4Z" fill="#007CAF"/>
</svg>
