<svg width="53" height="56" viewBox="0 0 53 56" fill="none" xmlns="http://www.w3.org/2000/svg">
<path d="M24.4539 0.128469C22.2593 0.344605 21.029 0.593992 18.851 1.3089C5.71665 5.58173 -2.16398 19.6305 0.695658 33.7126C1.59345 38.0852 3.95432 42.624 6.74745 45.2343C7.82813 46.2651 9.27458 47.1629 9.37433 46.8636C9.40758 46.7805 9.07507 46.2318 8.65942 45.6333C6.74745 42.89 5.26776 38.4343 4.73573 33.8789C4.46972 31.5512 4.63597 27.3283 5.08487 25.1503C7.09659 15.1582 14.1459 7.39395 23.5063 4.83357C25.0192 4.41793 25.3517 4.4013 28.7766 4.38468C32.0187 4.38468 32.6172 4.41793 34.0138 4.75044C37.8876 5.68149 41.8279 7.47708 44.3717 9.4888C44.7208 9.75481 45.0533 9.9377 45.1032 9.87119C45.2695 9.70493 43.3575 7.32744 42.0773 6.13039C37.3556 1.72455 30.9048 -0.47006 24.4539 0.128469Z" fill="#E9222D"/>
<path d="M29.2421 8.74065C28.0949 9.1563 27.2969 9.70495 26.715 10.5196C24.8695 13.08 25.6343 16.4384 28.3776 17.9347C29.3585 18.4501 29.558 18.5 30.8548 18.5C32.002 18.5 32.401 18.4169 32.9829 18.1176C35.4103 16.8208 36.4577 14.3103 35.6098 11.8164C34.7619 9.32255 31.736 7.85948 29.2421 8.74065Z" fill="#3C4A56"/>
<path d="M51.7036 9.78808C50.0244 11.567 41.4787 17.2032 36.6074 19.7636C34.0304 21.1103 32.8167 21.476 31.204 21.3763C30.0402 21.3098 29.7575 21.21 27.6959 20.1626C24.8363 18.7328 23.1238 18.0677 20.3639 17.3528C17.8535 16.6878 15.7087 16.322 13.4476 16.1558C12.1009 16.056 11.9014 16.0726 11.8017 16.322C11.6354 16.7377 12.1175 17.1533 14.0628 18.3337C18.8676 21.2266 22.6749 24.9841 23.4563 27.5943C24.005 29.473 23.6392 31.252 22.1762 33.7126C19.383 38.3845 15.0271 43.5717 8.14398 50.4548C5.46723 53.1316 3.37237 55.3262 3.48875 55.3262C4.13716 55.3262 9.0584 52.2338 12.4334 49.69C18.1361 45.4172 21.5776 42.3747 35.0778 29.7391C40.5976 24.5684 45.8014 18.899 49.0767 14.5098C50.174 13.0301 51.0718 11.6502 52.4185 9.38906C52.6014 9.07317 52.1525 9.32256 51.7036 9.78808Z" fill="#E9222D"/>
<path d="M34.8451 32.6486C34.5292 32.7816 33.2324 33.9454 31.9356 35.2589L29.608 37.6197L30.7884 37.7361C33.2989 37.9855 34.6456 38.8999 35.0113 40.5791C35.2275 41.6265 35.0945 42.3581 34.4627 43.5718C33.1659 46.049 28.8598 50.0059 24.2046 53.0152C21.5943 54.6944 21.6276 54.6612 22.6251 54.5614C25.917 54.1956 31.6031 51.8015 35.7429 49.0583C37.6382 47.7947 40.2984 45.251 41.246 43.7713C42.3101 42.1586 42.7091 40.8617 42.7257 39.116C42.7423 37.7195 42.7091 37.5532 42.1771 36.5723C41.1961 34.7601 39.1179 33.2139 36.9233 32.632C35.7263 32.3327 35.5766 32.3327 34.8451 32.6486Z" fill="#3C4A56"/>
</svg>
