<?xml version="1.0" encoding="UTF-8"?>
<svg id="Layer_1" xmlns="http://www.w3.org/2000/svg" version="1.1" viewBox="0 0 26.2 22">
  <!-- Generator: Adobe Illustrator 29.0.1, SVG Export Plug-In . SVG Version: 2.1.0 Build 192)  -->
  <defs>
    <style>
      .st0 {
        fill: #2e37a4;
      }
    </style>
  </defs>
  <path class="st0" d="M13.4,1.5c.6,1,1.2,1.9,1.8,2.9,1.5,2.4,2.9,4.8,4.4,7.2.2.3.2.5,0,.8-.3.4-.6.9-1,1.5-1.7-2.9-3.5-5.7-5.2-8.5-1.8,2.9-3.5,5.7-5.2,8.5-.4-.6-.7-1.1-1.1-1.7-.1-.2,0-.3,0-.4,2.1-3.4,4.1-6.8,6.2-10.1,0,0,0,0,.1,0h0Z"/>
  <path class="st0" d="M4.5,15.9c.4.6.7,1.2,1,1.7.1.2,0,.3,0,.5-.3.5-.6,1-.9,1.5,0,.1-.2.3-.4.2-.7,0-1.4,0-2.1,0,.8-1.3,1.6-2.6,2.4-3.9Z"/>
  <path class="st0" d="M22.1,15.9c.8,1.3,1.6,2.6,2.4,3.9h-2.1c-.2,0-.3-.1-.4-.3-.3-.5-.6-1-.9-1.5,0-.1-.1-.3,0-.5.3-.5.6-1.1,1-1.7h0Z"/>
  <path class="st0" d="M8.1,20.5c-2.4-4-4.8-7.9-7.2-11.8h7.2c-.4.6-.8,1.2-1.2,1.9-.1.2-.3.1-.5.1h-2c1.2,2,2.4,4,3.7,6,1.7-2.9,3.5-5.7,5.2-8.6,1.8,2.9,3.5,5.7,5.2,8.5,1.2-2,2.4-4,3.7-6-.7,0-1.4,0-2,0-.3,0-.5,0-.6-.3-.3-.5-.7-1.1-1.1-1.6h7.2c-2.4,3.9-4.8,7.8-7.2,11.8-1.8-2.9-3.5-5.7-5.2-8.6-1.8,2.9-3.5,5.7-5.2,8.6h0Z"/>
</svg>