<?xml version="1.0" encoding="UTF-8"?>
<svg id="Layer_1" xmlns="http://www.w3.org/2000/svg" version="1.1" viewBox="0 0 256 83">
  <!-- Generator: Adobe Illustrator 29.0.1, SVG Export Plug-In . SVG Version: 2.1.0 Build 192)  -->
  <defs>
    <style>
      .st0 {
        fill: none;
        stroke: #2e37a4;
      }

      .st1 {
        fill: #2e37a4;
      }
    </style>
  </defs>
  <g>
    <g>
      <path class="st1" d="M92.25,39.38l7.77-17.78h5.89l7.77,17.78h-6.2l-5.74-14.94h2.34l-5.74,14.94h-6.1ZM96.87,36.28l1.52-4.32h8.18l1.52,4.32h-11.23Z"/>
      <path class="st1" d="M114.66,39.38v-17.78h8.77c1.98,0,3.73.36,5.23,1.08,1.51.72,2.68,1.74,3.53,3.06.85,1.32,1.27,2.91,1.27,4.75s-.42,3.41-1.27,4.74c-.85,1.33-2.02,2.35-3.53,3.07-1.51.72-3.25,1.08-5.23,1.08h-8.77ZM120.65,34.71h2.52c.85,0,1.59-.16,2.22-.48.64-.32,1.13-.8,1.49-1.44.36-.63.53-1.4.53-2.3s-.18-1.69-.53-2.31c-.36-.63-.85-1.1-1.49-1.42-.63-.32-1.38-.48-2.22-.48h-2.52v8.44Z"/>
      <path class="st1" d="M135.64,39.38v-17.78h8.76c1.98,0,3.73.36,5.23,1.08,1.51.72,2.68,1.74,3.53,3.06.85,1.32,1.27,2.91,1.27,4.75s-.42,3.41-1.27,4.74c-.85,1.33-2.02,2.35-3.53,3.07-1.51.72-3.25,1.08-5.23,1.08h-8.76ZM141.64,34.71h2.52c.85,0,1.59-.16,2.22-.48.64-.32,1.13-.8,1.49-1.44.36-.63.53-1.4.53-2.3s-.18-1.69-.53-2.31c-.36-.63-.85-1.1-1.49-1.42-.63-.32-1.38-.48-2.22-.48h-2.52v8.44Z"/>
      <path class="st1" d="M165.98,39.79c-1.46,0-2.8-.23-4.03-.69s-2.29-1.1-3.19-1.94c-.9-.84-1.6-1.82-2.1-2.96-.5-1.13-.75-2.37-.75-3.71s.25-2.6.75-3.72c.5-1.13,1.2-2.11,2.1-2.95.9-.84,1.96-1.49,3.19-1.94s2.56-.69,4-.69,2.79.23,4.01.69c1.22.46,2.28,1.1,3.18,1.94.9.84,1.6,1.82,2.1,2.95.5,1.13.75,2.37.75,3.72s-.25,2.57-.75,3.71c-.5,1.13-1.2,2.12-2.1,2.96-.9.84-1.96,1.49-3.18,1.94-1.22.46-2.55.69-3.99.69ZM165.95,34.94c.56,0,1.08-.1,1.56-.3.48-.2.91-.5,1.27-.88.36-.38.65-.85.85-1.4.2-.55.3-1.17.3-1.87s-.1-1.32-.3-1.87c-.2-.55-.49-1.02-.85-1.4-.36-.38-.79-.67-1.27-.88-.48-.2-1-.31-1.56-.31s-1.08.1-1.56.31c-.48.2-.91.5-1.27.88-.36.38-.65.85-.85,1.4-.2.55-.3,1.17-.3,1.87s.1,1.32.3,1.87c.2.55.49,1.02.85,1.4.36.38.79.67,1.27.88.48.2,1,.3,1.56.3Z"/>
      <path class="st1" d="M178.17,39.38v-17.78h4.93l9.04,10.82h-2.29v-10.82h5.84v17.78h-4.93l-9.04-10.82h2.29v10.82h-5.84Z"/>
    </g>
    <g>
      <path class="st1" d="M99.28,66.83l-6.9-20.64h3.04l6.34,19.05h-1.53l6.58-19.05h2.71l6.43,19.05h-1.47l6.43-19.05h2.8l-6.9,20.64h-3.1l-6.02-17.66h.8l-6.05,17.66h-3.16Z"/>
      <path class="st1" d="M127.3,66.83v-20.64h14.57v2.57h-11.62v15.51h12.03v2.57h-14.98ZM129.98,57.6v-2.51h10.62v2.51h-10.62Z"/>
      <path class="st1" d="M147.05,66.83v-20.64h9.26c2.38,0,4.21.48,5.48,1.43,1.28.95,1.92,2.26,1.92,3.91,0,1.12-.25,2.06-.75,2.83-.5.77-1.17,1.36-2.02,1.77-.85.41-1.76.62-2.74.62l.53-.88c1.18,0,2.22.21,3.13.62.9.41,1.62,1.02,2.15,1.81s.8,1.78.8,2.96c0,1.77-.66,3.14-1.99,4.11-1.33.97-3.3,1.46-5.91,1.46h-9.85ZM150,64.44h6.78c1.63,0,2.88-.28,3.75-.83.86-.55,1.3-1.42,1.3-2.59s-.43-2.07-1.3-2.62c-.87-.55-2.11-.83-3.75-.83h-7.05v-2.39h6.31c1.49,0,2.65-.28,3.48-.83.83-.55,1.24-1.38,1.24-2.48s-.41-1.93-1.24-2.48c-.83-.55-1.99-.83-3.48-.83h-6.05v15.87Z"/>
      <path class="st1" d="M173,66.83v-18.08h-7.08v-2.57h17.07v2.57h-7.08v18.08h-2.92Z"/>
      <path class="st1" d="M186.21,66.83v-20.64h14.57v2.57h-11.62v15.51h12.03v2.57h-14.98ZM188.9,57.6v-2.51h10.62v2.51h-10.62Z"/>
      <path class="st1" d="M215.17,67.07c-1.57,0-3.02-.26-4.35-.78-1.33-.52-2.48-1.26-3.45-2.21-.97-.95-1.74-2.07-2.29-3.35-.55-1.28-.83-2.68-.83-4.22s.28-2.94.83-4.22c.55-1.28,1.32-2.39,2.3-3.35.98-.95,2.14-1.69,3.47-2.21,1.33-.52,2.78-.78,4.35-.78s3.06.27,4.41.81c1.35.54,2.49,1.34,3.44,2.4l-1.92,1.86c-.79-.83-1.67-1.44-2.65-1.84-.98-.4-2.03-.6-3.16-.6s-2.24.2-3.23.59c-.99.39-1.85.94-2.58,1.65-.73.71-1.29,1.55-1.7,2.52-.4.97-.6,2.03-.6,3.17s.2,2.2.6,3.17c.4.97.97,1.81,1.7,2.52.73.71,1.59,1.26,2.58,1.65.99.39,2.07.59,3.23.59s2.17-.2,3.16-.6c.98-.4,1.87-1.03,2.65-1.87l1.92,1.86c-.94,1.06-2.09,1.87-3.44,2.42-1.35.55-2.83.83-4.44.83Z"/>
      <path class="st1" d="M226.97,66.83v-20.64h2.95v20.64h-2.95ZM229.62,57.63v-2.57h12.41v2.57h-12.41ZM241.77,66.83v-20.64h2.95v20.64h-2.95Z"/>
    </g>
  </g>
  <line class="st0" x1="85.66" y1="68.85" x2="85.66" y2="13.84"/>
  <path class="st1" d="M46.62,12.12c1.65,2.7,3.29,5.41,4.94,8.12,4.12,6.75,8.22,13.52,12.37,20.25.48.78.57,1.33,0,2.12-.94,1.28-1.74,2.66-2.72,4.2-4.92-8.07-9.76-16.02-14.7-24.13-4.94,8.1-9.77,16.04-14.7,24.14-1.08-1.69-2.03-3.22-3.04-4.72-.29-.44-.19-.75.05-1.14,5.83-9.55,11.65-19.1,17.48-28.64.04-.07.15-.09.33-.19Z"/>
  <path class="st1" d="M21.67,52.56c1,1.77,1.86,3.31,2.75,4.83.27.46.26.82-.02,1.27-.85,1.39-1.67,2.81-2.48,4.22-.25.43-.5.73-1.08.72-1.9-.03-3.81-.01-5.96-.01,2.29-3.73,4.48-7.28,6.78-11.03Z"/>
  <path class="st1" d="M71.33,52.57c2.28,3.7,4.47,7.26,6.79,11.02-2.18,0-4.08-.02-5.99.01-.59.01-.82-.33-1.06-.74-.8-1.38-1.6-2.75-2.42-4.12-.25-.42-.41-.79-.11-1.29.93-1.56,1.81-3.16,2.79-4.89Z"/>
  <path class="st1" d="M31.66,65.52c-6.83-11.2-13.56-22.25-20.38-33.45h20.5c-1.23,1.84-2.35,3.53-3.48,5.21-.32.47-.84.33-1.29.33-1.81.01-3.62,0-5.67,0,3.52,5.74,6.91,11.26,10.41,16.97,4.93-8.08,9.77-16.01,14.73-24.14,4.94,8.09,9.77,16.01,14.73,24.14,3.48-5.67,6.87-11.2,10.41-16.97-2.05,0-3.86-.04-5.66.02-.8.03-1.29-.23-1.71-.91-.93-1.5-1.94-2.96-3.03-4.6h20.41c-6.76,11.09-13.48,22.13-20.34,33.4-4.96-8.11-9.82-16.06-14.81-24.22-4.95,8.1-9.84,16.08-14.81,24.22Z"/>
</svg>