<svg width="131" height="56" viewBox="0 0 131 56" fill="none" xmlns="http://www.w3.org/2000/svg">
<path d="M24.4539 0.128469C22.2593 0.344605 21.029 0.593992 18.851 1.3089C5.71665 5.58173 -2.16398 19.6305 0.695658 33.7126C1.59345 38.0852 3.95432 42.624 6.74745 45.2343C7.82813 46.2651 9.27458 47.1629 9.37433 46.8636C9.40758 46.7805 9.07507 46.2318 8.65942 45.6333C6.74745 42.89 5.26776 38.4343 4.73573 33.8789C4.46972 31.5512 4.63597 27.3283 5.08487 25.1503C7.09659 15.1582 14.1459 7.39395 23.5063 4.83357C25.0192 4.41793 25.3517 4.4013 28.7766 4.38468C32.0187 4.38468 32.6172 4.41793 34.0138 4.75044C37.8876 5.68149 41.8279 7.47708 44.3717 9.4888C44.7208 9.75481 45.0533 9.9377 45.1032 9.87119C45.2695 9.70493 43.3575 7.32744 42.0773 6.13039C37.3556 1.72455 30.9048 -0.47006 24.4539 0.128469Z" fill="#E9222D"/>
<path d="M29.2421 8.74065C28.0949 9.1563 27.2969 9.70495 26.715 10.5196C24.8695 13.08 25.6343 16.4384 28.3776 17.9347C29.3585 18.4501 29.558 18.5 30.8548 18.5C32.002 18.5 32.401 18.4169 32.9829 18.1176C35.4103 16.8208 36.4577 14.3103 35.6098 11.8164C34.7619 9.32255 31.736 7.85948 29.2421 8.74065Z" fill="#3C4A56"/>
<path d="M51.7036 9.78808C50.0244 11.567 41.4787 17.2032 36.6074 19.7636C34.0304 21.1103 32.8167 21.476 31.204 21.3763C30.0402 21.3098 29.7575 21.21 27.6959 20.1626C24.8363 18.7328 23.1238 18.0677 20.3639 17.3528C17.8535 16.6878 15.7087 16.322 13.4476 16.1558C12.1009 16.056 11.9014 16.0726 11.8017 16.322C11.6354 16.7377 12.1175 17.1533 14.0628 18.3337C18.8676 21.2266 22.6749 24.9841 23.4563 27.5943C24.005 29.473 23.6392 31.252 22.1762 33.7126C19.383 38.3845 15.0271 43.5717 8.14398 50.4548C5.46723 53.1316 3.37237 55.3262 3.48875 55.3262C4.13716 55.3262 9.0584 52.2338 12.4334 49.69C18.1361 45.4172 21.5776 42.3747 35.0778 29.7391C40.5976 24.5684 45.8014 18.899 49.0767 14.5098C50.174 13.0301 51.0718 11.6502 52.4185 9.38906C52.6014 9.07317 52.1525 9.32256 51.7036 9.78808Z" fill="#E9222D"/>
<path d="M105.638 20.3456C101.831 21.26 99.5195 24.2692 99.5195 28.2927C99.5195 31.435 100.683 33.6795 103.077 35.2423C104.989 36.4726 107.716 36.8882 109.844 36.2731C111.823 35.6912 113.701 34.0951 114.566 32.2995C115.214 30.9196 115.248 30.9694 113.07 31.0193C111.557 31.0692 111.158 31.1191 111.158 31.302C111.158 31.435 110.908 31.8174 110.626 32.1499C109.046 33.9455 105.854 33.8291 104.158 31.9171C103.277 30.9029 102.944 29.7558 103.044 27.9934C103.144 26.3641 103.643 25.2335 104.707 24.3358C105.405 23.7372 106.669 23.2384 107.5 23.2384C108.797 23.2384 110.792 24.3524 111.074 25.2502C111.174 25.5328 111.357 25.5661 113.02 25.5661H114.865L114.749 25.034C114.483 23.7206 112.754 21.6424 111.291 20.8942C109.744 20.0962 107.517 19.88 105.638 20.3456Z" fill="#3C4A56"/>
<path d="M53.8483 23.3548C54.9789 25.0673 56.1593 26.8961 56.4918 27.3949L57.0737 28.3259L56.0928 29.8056C55.5608 30.6036 54.3305 32.4159 53.3662 33.8291L51.6371 36.3728H53.6654H55.7104L56.4586 35.076C56.8576 34.3777 57.6224 33.0975 58.1378 32.2496L59.0854 30.7034L60.7148 33.5298L62.3607 36.3728H64.4057C65.5196 36.3728 66.4341 36.3396 66.4341 36.3063C66.4341 36.2564 65.2037 34.3777 63.724 32.1L60.9974 27.9768L63.4414 24.3191C64.7715 22.3074 65.9353 20.5617 66.0018 20.4453C66.1015 20.2956 65.6693 20.2458 64.0732 20.2458H62.0282L60.5485 22.9225L59.0688 25.5827L57.6224 22.9558L56.1593 20.3289L53.9813 20.279L51.8033 20.2291L53.8483 23.3548Z" fill="#3C4A56"/>
<path d="M73.5833 21.8252V23.2218L75.6615 23.2716L77.7563 23.3215L77.7896 29.8056L77.8228 36.2896L79.5353 36.3395L81.2311 36.3894V29.8056V23.2384H83.3093H85.3876V21.8252V20.412H79.4854H73.5833V21.8252Z" fill="#3C4A56"/>
<path d="M87.4158 28.3425L87.4657 36.2897H92.5366H97.6074V34.8266V33.3469L94.1659 33.3802L90.7077 33.3968V31.5679V29.7225L93.717 29.6892L96.7263 29.6394V28.2594V26.8628L93.717 26.8961L90.7077 26.9127V25.1504V23.4047H94.0329H97.3581V21.9084V20.412H92.3703H87.3826L87.4158 28.3425Z" fill="#3C4A56"/>
<path d="M117.176 28.3425L117.226 36.2896L118.855 36.3395L120.468 36.3894V33.1307V29.8887H123.627H126.786V33.1307V36.3728H128.448H130.111V28.3924V20.412H128.448H126.786V23.5709V26.7298H123.627H120.468V23.5709V20.412H118.805H117.143L117.176 28.3425Z" fill="#3C4A56"/>
<path d="M66.1016 28.9743V30.5537H69.3436H72.5856V28.9743V27.3948H69.3436H66.1016V28.9743Z" fill="#3C4A56"/>
<path d="M34.8451 32.6486C34.5292 32.7816 33.2324 33.9454 31.9356 35.2589L29.608 37.6197L30.7884 37.7361C33.2989 37.9855 34.6456 38.8999 35.0113 40.5791C35.2275 41.6265 35.0945 42.3581 34.4627 43.5718C33.1659 46.049 28.8598 50.0059 24.2046 53.0152C21.5943 54.6944 21.6276 54.6612 22.6251 54.5614C25.917 54.1956 31.6031 51.8015 35.7429 49.0583C37.6382 47.7947 40.2984 45.251 41.246 43.7713C42.3101 42.1586 42.7091 40.8617 42.7257 39.116C42.7423 37.7195 42.7091 37.5532 42.1771 36.5723C41.1961 34.7601 39.1179 33.2139 36.9233 32.632C35.7263 32.3327 35.5766 32.3327 34.8451 32.6486Z" fill="#3C4A56"/>
<path d="M51.8033 47.5952V54.3286H54.2141C59.2018 54.3286 61.4463 53.2978 62.8429 50.355C63.3084 49.3409 63.3583 49.1247 63.3417 47.5952C63.3417 46.2817 63.2585 45.7331 62.9593 44.9849C62.2111 43.0896 60.2659 41.4935 58.1544 41.0446C57.6723 40.9448 56.0429 40.8617 54.5466 40.8617H51.8033V47.5952ZM57.8718 43.5385C58.8028 43.8045 60.0165 45.0514 60.2825 46.0157C60.5651 47.0798 60.4155 48.9252 59.9666 49.8064C59.285 51.1531 57.8053 51.8347 55.6273 51.8347H54.6297V47.5952V43.3556H55.9265C56.6248 43.3556 57.506 43.4387 57.8718 43.5385Z" fill="#E9222D"/>
<path d="M65.5529 47.5453L65.6028 54.2455L67.0326 54.2953L68.479 54.3452L68.3959 49.6734C68.346 47.113 68.3128 45.0181 68.3294 45.0181C68.346 45.0181 69.0277 46.6308 69.8424 48.5927L71.3387 52.1672H72.5856H73.8492L75.3788 48.5428L76.8917 44.935L76.9083 49.6401V54.3452L78.2883 54.2953L79.6516 54.2455L79.7015 47.5453L79.7347 40.8617H77.7729H75.811L74.2316 44.6856C73.2174 47.1795 72.6189 48.4431 72.5357 48.31C72.4526 48.1937 71.7377 46.4812 70.9397 44.5194L69.4766 40.9448L67.4981 40.8949L65.5197 40.8451L65.5529 47.5453Z" fill="#E9222D"/>
<path d="M82.3948 47.5785V54.3286H83.808H85.2212V52.0841V49.8396H86.5845C88.4964 49.8396 89.7101 49.4573 90.7077 48.5595C91.7219 47.645 92.1209 46.6641 92.1042 45.1844C92.0876 43.3722 91.2563 42.0588 89.6769 41.3439C88.8622 40.9781 88.5463 40.9448 85.6036 40.895L82.3948 40.8285V47.5785ZM87.7317 43.5218C88.6627 43.7879 89.1282 44.3864 89.1282 45.3839C89.1282 46.0822 89.0617 46.2651 88.6627 46.5976C88.0974 47.0964 87.2329 47.3458 86.1023 47.3458H85.2212V45.3507V43.3556H86.1855C86.7009 43.3556 87.3991 43.4387 87.7317 43.5218Z" fill="#E9222D"/>
</svg>
